Coordinates
version=1
nRows=8
nColumns=34
inDegrees=yes

Units are S.I. units (second, meters, Newtons, ...)
If the header above contains a line with 'inDegrees', this indicates whether rotational values are in degrees (yes) or radians (no).

endheader
time	pelvis_tilt	pelvis_list	pelvis_rotation	pelvis_tx	pelvis_ty	pelvis_tz	hip_flexion_r	hip_adduction_r	hip_rotation_r	knee_angle_r	ankle_angle_r	subtalar_angle_r	mtp_angle_r	hip_flexion_l	hip_adduction_l	hip_rotation_l	knee_angle_l	ankle_angle_l	subtalar_angle_l	mtp_angle_l	lumbar_extension	lumbar_bending	lumbar_rotation	arm_flex_r	arm_add_r	arm_rot_r	elbow_flex_r	pro_sup_r	arm_flex_l	arm_add_l	arm_rot_l	elbow_flex_l	pro_sup_l
      7.21666670	    -31.36156508	      2.77880309	      4.31594928	      0.82776484	      0.95898820	     -0.30047274	     63.87886597	    -15.95723873	     -2.20486273	     36.33496543	     -1.56261033	     -8.39401376	      0.00000000	     64.35416078	     -7.25419440	     -4.77129714	     37.96890320	      3.69615240	      0.37011355	      0.00000000	    -25.22609143	     -1.24974208	     -2.37478952	     75.63859980	    -10.84878467	     22.39852238	     90.93183215	     84.53164566	     77.50435139	     -4.68815033	     26.56231154	     83.75491780	     63.63942471
      7.23333330	    -31.97210113	      2.59656062	      4.31631679	      0.82034946	      0.94975859	     -0.29969034	     66.60240017	    -16.01119470	     -1.96623752	     39.48048493	     -0.72413850	     -8.79534241	      0.00000000	     67.04454265	     -7.72126034	     -4.57562845	     40.90375851	      4.21428133	      0.30168377	      0.00000000	    -26.79948485	     -1.07842337	     -2.25159846	     78.50295278	    -10.41933619	     21.61056671	     91.04138920	     84.53229214	     80.41174977	     -4.27150129	     25.79485718	     83.47371100	     63.59535832
      7.25000000	    -32.44161241	      2.26513275	      4.21140687	      0.81592005	      0.94254695	     -0.30005164	     69.25175913	    -15.78486828	     -1.60051087	     42.50766215	      0.07354445	     -9.08975600	      0.00000000	     69.33552800	     -8.23952620	     -4.64481936	     43.43675236	      4.67061899	      0.31920339	      0.00000000	    -28.32017983	     -0.71140642	     -1.94672282	     81.04609249	     -9.88993008	     20.92593084	     91.46482601	     84.56172319	     82.98940350	     -4.00900675	     25.29004548	     83.11267306	     63.57879385
      7.26666670	    -32.63449813	      2.15239367	      4.08695629	      0.81708789	      0.93053753	     -0.30100912	     71.54512232	    -15.84726890	     -1.91626639	     45.45715693	      0.45255875	     -9.94857874	      0.00000000	     70.76555148	     -8.72097792	     -4.91552068	     45.42811590	      5.78045696	      1.28445600	      0.00000000	    -30.12013897	     -0.73162886	     -1.35389296	     82.97602423	    -10.28688046	     20.43929050	     92.40403315	     84.87868557	     85.36080435	     -3.29757296	     25.68797567	     82.54417049	     63.68664708
      7.28333330	    -32.68494145	      2.04683672	      4.28032718	      0.81264198	      0.91470282	     -0.30433991	     74.02064947	    -16.22575173	     -1.75386772	     49.03817052	      1.50828522	    -10.67066313	      0.00000000	     72.65940847	     -8.82822359	     -4.95974417	     48.14515061	      6.87550472	      0.83029974	      0.00000000	    -31.81110679	     -0.38399339	     -1.32207915	     85.21176338	    -10.33868405	     19.75758084	     92.54795494	     84.92527079	     87.39674598	     -2.85710311	     25.38360236	     82.79705785	     63.72159956
      7.30000000	    -32.57415555	      2.13325647	      4.65865245	      0.81402983	      0.89614551	     -0.30834321	     76.23228323	    -17.12015382	     -1.05226485	     52.64666892	      3.17505887	     -9.90697632	      0.00000000	     74.53334170	     -8.83299412	     -5.18488630	     51.39211277	      8.63957631	      1.52359783	      0.00000000	    -33.60988508	     -0.11293674	     -1.41414044	     87.33674253	    -11.40650402	     19.95234229	     93.49644229	     85.31533302	     89.43117031	     -2.76042232	     25.77882136	     83.51399813	     63.98191938
      7.31666670	    -32.46737254	      2.12689074	      4.92784555	      0.80468849	      0.87963568	     -0.30856916	     78.46290898	    -17.63906852	      0.10902810	     56.08772158	      5.65082593	     -8.58384279	      0.00000000	     76.95735329	     -8.97331177	     -5.02810079	     55.16698821	     10.16343839	      1.61406020	      0.00000000	    -35.13743237	      0.18176811	     -1.28774572	     89.88056400	    -12.38956399	     20.30290716	     94.08025273	     85.67785795	     91.54880879	     -2.48739038	     26.37953783	     84.25632630	     64.34949543
      7.33333330	    -32.36955788	      2.34964965	      4.79331969	      0.80380564	      0.85913211	     -0.31089552	     81.37818026	    -18.02548158	      0.88302829	     60.12308122	      7.07592633	     -7.74291890	      0.00000000	     79.45872865	     -9.17608576	     -4.72011536	     59.08526175	     11.68711018	      1.54677521	      0.00000000	    -36.32597973	      0.08319051	     -1.32079677	     92.04648291	    -13.01136938	     20.94855795	     93.98470555	     86.06685308	     93.64797628	     -2.60990885	     26.72431932	     84.25103288	     64.72783033
